<svg width="85" height="11" viewBox="0 0 85 11" fill="none" xmlns="http://www.w3.org/2000/svg">
<path fill-rule="evenodd" clip-rule="evenodd" d="M30.506 5.301C30.506 2.356 32.037 0.00100017 34.798 0.00100017C37.56 0.00100017 39.09 2.356 39.09 5.301C39.09 8.245 37.56 10.601 34.799 10.601C32.037 10.601 30.506 8.245 30.506 5.301ZM34.798 9.131C35.872 9.131 36.329 7.363 36.329 5.304C36.329 3.244 35.869 1.478 34.799 1.478C33.728 1.478 33.267 3.245 33.267 5.304C33.263 7.364 33.724 9.131 34.798 9.131ZM1.992 0.151V2.948H2.144L4.136 0.151H6.893L3.214 3.387L3.367 3.534L10.112 0.147V2.501L4.132 4.561V4.707L10.112 4.193V6.403L4.132 5.888V6.035L10.112 8.094V10.45L3.367 7.062L3.214 7.209L6.894 10.446H4.135L2.143 7.648H1.991V10.446H0V0.143H1.992V0.151ZM11.959 0.151H14.564L14.412 6.331H14.564L17.63 0.151H19.93V10.454H17.325L17.477 4.272H17.325L14.258 10.455H11.958V0.15L11.959 0.151ZM24.374 0.151H21.77V10.454H24.375V5.889H26.519V10.454H29.124V0.151H26.519V4.127H24.375L24.374 0.151ZM47.827 0.151H40.472V10.454H43.078V1.917H45.222V10.454H47.827V0.151ZM49.206 5.301C49.206 2.356 50.736 0.00100017 53.498 0.00100017C56.256 0.00100017 57.79 2.356 57.79 5.301C57.79 8.245 56.26 10.601 53.498 10.601C50.741 10.601 49.206 8.245 49.206 5.301ZM53.498 9.131C54.572 9.131 55.029 7.363 55.029 5.304C55.029 3.244 54.569 1.478 53.499 1.478C52.424 1.478 51.967 3.245 51.967 5.304C51.967 7.364 52.424 9.131 53.498 9.131ZM61.774 0.151H59.169V10.454H61.469L64.535 4.272H64.688L64.535 10.454H67.14V0.151H64.84L61.774 6.333H61.621L61.774 0.151ZM74.041 6.921L76.494 7.213C76.033 9.273 74.963 10.6 72.677 10.6C69.92 10.6 68.522 8.245 68.522 5.3C68.522 2.356 69.916 0 72.677 0C74.914 0 76.033 1.325 76.494 3.238L74.041 3.826C73.889 2.795 73.443 1.471 72.677 1.471C71.759 1.471 71.283 3.238 71.283 5.297C71.283 7.342 71.759 9.123 72.677 9.123C73.428 9.13 73.885 7.953 74.041 6.921ZM80.173 0.151H77.72V10.454H80.173V5.889H80.325L82.165 10.454H85L82.317 5.154L84.922 0.15H82.317L80.325 4.715H80.173V0.151Z" fill="white"/>
</svg>
